<?xml version="1.0" encoding="UTF-8"?>
<svg id="Layer_1" xmlns="http://www.w3.org/2000/svg" version="1.1" viewBox="0 0 1024 1024">
  <!-- Generator: Adobe Illustrator 29.4.0, SVG Export Plug-In . SVG Version: 2.1.0 Build 152)  -->
  <defs>
    <style>
      .st0 {
        fill: #1fd9ea;
      }

      .st1 {
        fill: #fff;
      }
    </style>
  </defs>
  <g>
    <path class="st0" d="M498,275c9,0,18.1,0,27.1,0,.2.3.6.8.7,1,19.5,40.6,38.8,81.3,58.3,121.9-1.7,2.6-4.2,4.5-6.3,6.8-5.2,5.2-10.1,10.6-15.4,15.7-16.7-35.1-33.5-70.1-50-105.3-.2-.1-.5-.3-.7-.4-34,75.2-68.5,150.1-102.6,225.2-1.3,2.5-2,5.5-4,7.5-10.5.1-21.1,0-31.6.1.8-3,2.2-5.8,3.5-8.6,16.8-36.8,33.9-73.5,50.9-110.2,23.7-51.1,46.8-102.5,70.2-153.7Z"/>
    <path class="st0" d="M530.5,485.9c31.1-31.9,61.9-64.1,93-96.1,7.3,7,14.2,14.6,21.8,21.2-26.1,26.3-51.2,53.6-77.4,79.8-12.2,12.4-24.4,24.7-36.4,37.4-21-21.4-42.3-42.4-63.7-63.4,6.9-6.9,13.2-14.5,20-21.6,14.3,14.2,28.6,28.4,42.8,42.7Z"/>
    <path class="st0" d="M592.4,495.9c7.3-7.4,14.3-15.1,21.7-22.4,2.1,2.2,3,5.2,4.4,7.9,9.6,19.5,19,39.1,28.5,58.7,1.2,2.4,2.4,4.9,3.3,7.5-10.8,0-21.6,0-32.4,0-8.6-17.2-16.9-34.5-25.5-51.7Z"/>
  </g>
  <g>
    <path class="st1" d="M594.3,618.2c5.6-2.1,12.8,1.6,13.1,7.9.8,6.8-7,11.9-13.1,9.4-3.9-1.3-6.5-5.5-6.3-9.6.6-3.5,3-6.5,6.3-7.7Z"/>
    <path class="st1" d="M701.4,618.4c5-2.2,11.6.3,13.4,5.6,2.1,5.6-2.9,12.1-8.7,11.9-5.5.7-10.8-4.5-10.3-10,.4-3.3,2.5-6.4,5.6-7.6Z"/>
    <path class="st1" d="M211,627.1c.6-1.3.9-2.9,1.8-4,6-.2,11.9,0,17.9,0,11.9,30.6,23,61.6,35,92.1.2,1.1,1.6,2.4.8,3.6-5,.2-10,.2-15.1,0-3-8-6-16-8.8-24-13.8-.3-27.7,0-41.6-.1-3.3,8-5.9,16.2-9,24.3-4.9-.1-9.9,0-14.8,0,10.5-30.8,22.7-61.1,33.7-91.8ZM221.7,637.1c-5,15.1-10.9,29.8-16.1,44.9,10.9,0,21.7,0,32.6,0-5.7-14.9-10.9-29.9-16.5-44.8Z"/>
    <path class="st1" d="M338,629c4.4,0,8.8,0,13.2,0,0,6.1.1,12.1-.2,18.2,6.1-.2,12.3,0,18.4-.1.4,3.9.2,7.9.2,11.8-6,.3-12.1.2-18.1,0,.1,12,0,24,0,36,0,4.1,1.5,9,5.6,10.8,4.1,1,8.4,0,12.6.2,0,4.1.2,8.3-.2,12.4-6.8,2.2-14.7,2.5-21.2-.9-6.4-3.3-10.7-10.5-10.4-17.7v-40.9c-3.7.1-7.4.1-11.1.1-.2-4-.3-8.1-.2-12.1,3.7,0,7.5,0,11.2,0,0-6.1,0-12.1,0-18.2Z"/>
    <path class="st1" d="M544,629c4.6,0,9.3,0,13.9,0,0,6.1,0,12.1,0,18.1,6,0,11.9,0,17.9,0,.2,4,.1,7.9.1,11.9-6,0-12,.1-18,0,0,12.7,0,25.3,0,38,.5,3.4,1.8,7.4,5.3,8.8,4.2.9,8.4,0,12.6.1,0,4.2.3,8.4-.1,12.5-7.7,2.4-17,2.5-23.8-2.4-5.4-3.8-8.1-10.7-8-17.2,0-13.3,0-26.6,0-39.9-3.7,0-7.5.1-11.2.1,0-4-.1-8.1,0-12.1,3.7,0,7.5,0,11.2,0,0-6.1,0-12.1,0-18.2Z"/>
    <path class="st1" d="M736.4,629.1c4.7-.1,9.4,0,14.1,0,0,6,0,12.1,0,18.1,6,0,12,0,18,0,.2,3.9.1,7.9.1,11.9-6,.2-12.1,0-18.1,0,.1,12.3,0,24.7,0,37,0,3.9,1.9,8.2,5.6,9.9,4.2.9,8.5-.1,12.7.2-.2,4.1.5,8.4-.3,12.5-8.4,2.6-18.7,2.5-25.6-3.6-4.6-3.9-6.6-10-6.6-15.9.1-13.3,0-26.7.1-40-3.8.1-7.6.2-11.4.1,0-4,0-8,0-12,3.8,0,7.6,0,11.5,0-.4-6-.1-12.1-.2-18.1Z"/>
    <path class="st1" d="M298.6,650.7c4.9-4.5,11.9-5.1,18.2-5,0,4.6.2,9.3-.2,13.9-4.1,1-8.6-.3-12.6,1.5-6.7,2.1-10.1,9.4-10.3,16-.5,13.9.2,27.9-.4,41.8-4.5,0-9-.1-13.6,0,0-23.9,0-47.9,0-71.8,4.4,0,8.7,0,13.1,0,0,3.8-.1,7.7.1,11.6,1.9-2.7,3-5.9,5.5-8.1Z"/>
    <path class="st1" d="M391.8,652.7c11.5-9.1,29.4-9.9,41.2-.9,10.5,8.3,15.5,22.6,13.4,35.7-18-.2-36-.2-54,0,.8,8.3,5.3,16.7,13.2,20,6.7,3.1,14.9,1.4,20.6-3.2,2.7-2.2,4.5-5.3,6.2-8.4,4,1.1,8.1,1.8,12.1,2.9-2.2,7.7-7.5,14.5-14.7,18-5.1,2.7-11,3.5-16.7,3.4-10.9.5-22.3-4.6-28.2-14-10.5-16.3-8.5-40.9,7-53.4ZM405.5,658.5c-7.2,3.3-12.1,10.6-12.9,18.4,13.5,0,27.1,0,40.6,0-.8-5.7-3.1-11.6-7.7-15.3-5.3-4.7-13.4-5.7-20-3.2Z"/>
    <path class="st1" d="M480.9,650c8.8-5.7,21.2-5.8,29.9.3,8.5,5.8,11.4,16.9,10.7,26.8,0,13.6,0,27.2,0,40.8-.1.2-.4.7-.6.9-4.4.1-8.8,0-13.2.1-.3-15,0-30-.1-44.9,0-5.7-3.2-11.7-8.7-13.8-7.3-2.8-16.9-1.3-21.7,5.3-3.6,4.7-4,10.9-3.9,16.6,0,12.3.1,24.6,0,36.8-4.7-.2-9.3,0-14-.1-.6-23.8-.2-47.7-.2-71.6,4.7,0,9.3,0,14,0,0,4-.2,7.9,0,11.9,2.3-3.3,4.4-7,7.9-9.2Z"/>
    <path class="st1" d="M627.7,656.7c12.7-14.8,39-15,51.5,0,2.9,3.5,4.8,7.7,6,12.1-4.5,1-9.1,1.6-13.6,2.7-1.9-4.5-4.5-9.1-9-11.3-6.9-3.6-16.1-2.9-21.9,2.4-5.8,5-8.1,13-7.8,20.4,0,7.5,2,15.8,8.1,20.8,4.7,4.2,11.6,5,17.5,3.7,6.3-1.6,10.8-6.8,13.4-12.6,4.4,1.4,8.9,2.3,13.2,3.7-2.4,6.4-6.1,12.7-12.1,16.4-5.7,3.6-12.4,5.3-19.1,5-9.5.5-19.5-2.9-25.9-10.2-6.5-7.3-9.5-17.2-9.2-26.9-.2-9.4,2.5-19.2,8.8-26.3Z"/>
    <path class="st1" d="M591,647.1c4.6,0,9.3,0,13.9,0,0,23.9.1,47.8,0,71.7-4.6,0-9.2,0-13.9,0-.2-23.9,0-47.8,0-71.7Z"/>
    <path class="st1" d="M698.6,647.1c4.6.3,9.4-.4,13.9.4.3,23.7.2,47.4,0,71.1-4.6.4-9.3,0-13.9.2-.2-23.9-.1-47.8-.1-71.7Z"/>
    <path class="st1" d="M780,647.3c4.8-.2,9.6-.1,14.5,0,6.9,18.7,13.2,37.6,20,56.3,6.3-18.8,12.3-37.7,18.9-56.4,4.7,0,9.3,0,14,0-7.5,23.4-16.7,46.3-24.7,69.5-3.7,9.2-5.5,19.9-13.1,27-7.3,6.4-17.9,6.4-26.8,4,.2-4.2,1-8.2,1.7-12.3,1.7-1,3.7.5,5.5.5,3.2.1,6.9.8,9.5-1.6,4-3.9,5.3-9.4,7.6-14.3-9.2-24.2-17.9-48.6-27-72.8Z"/>
  </g>
</svg>